<svg width="179" height="76" viewBox="0 0 179 76" fill="none" xmlns="http://www.w3.org/2000/svg">
<path d="M25.4001 51.0632C18.2508 51.0632 12.3892 48.5959 7.41578 43.5293C2.39791 38.4185 0 32.5588 0 25.5536C0 18.5043 2.44232 12.6006 7.41578 7.53392C12.3892 2.46725 18.2952 0 25.4446 0C32.5939 0 38.4555 2.46725 43.4289 7.48985C48.4024 12.5565 50.8003 18.4603 50.8003 25.5096C50.8003 32.5148 48.4024 38.4185 43.3845 43.4852C38.4111 48.5959 32.5495 51.0632 25.4001 51.0632ZM25.4001 9.56058C21.004 9.56058 17.2739 11.1907 14.2543 14.3629C11.2791 17.491 9.76929 21.28 9.76929 25.5977C9.76929 29.8713 11.2791 33.6162 14.2543 36.7444C17.2739 39.9165 21.004 41.5467 25.4001 41.5467C29.7075 41.5467 33.4376 39.9165 36.4572 36.7444C39.4324 33.6162 40.9422 29.8713 40.9422 25.5977C40.9422 21.28 39.4324 17.5351 36.4572 14.3629C33.482 11.1467 29.7519 9.56058 25.4001 9.56058Z" fill="#0074FC"/>
<path d="M96.0499 49.3449C92.4974 49.3449 89.2558 48.1994 86.103 45.7762C82.9502 43.3971 80.7743 40.4893 79.6197 37.0968L74.3354 22.5136H88.2789C89.8775 22.5136 91.2096 21.8087 92.231 20.487C93.1635 19.2974 93.6076 17.9757 93.6076 16.5658C93.6076 15.1119 93.1191 13.7902 92.231 12.6006C91.2096 11.3229 89.8331 10.662 88.2789 10.662H66.5644V49.3009H56.7951V1.14552H88.3233C92.5862 1.14552 96.0943 2.64348 99.0251 5.72754C102 8.85566 103.421 12.4244 103.421 16.698C103.421 20.5751 102.178 23.9235 99.6912 26.9194C97.2044 29.8713 94.1404 31.5455 90.3215 32.0301L88.1012 32.2945L88.9894 34.2771C90.9876 38.8151 93.9184 39.7403 96.0055 39.7403H112.169V1.10146H121.938V49.3449H96.0499Z" fill="#0074FC"/>
<path d="M153.555 51.0632C146.406 51.0632 140.545 48.5959 135.571 43.5293C130.553 38.4185 128.155 32.5588 128.155 25.5536C128.155 18.5043 130.598 12.6006 135.571 7.53392C140.545 2.46725 146.45 0 153.6 0C160.749 0 166.611 2.46725 171.584 7.48985C176.558 12.5565 179 18.4603 179 25.5096C179 32.5148 176.602 38.4185 171.584 43.4852C166.566 48.5959 160.705 51.0632 153.555 51.0632ZM153.555 9.56058C149.159 9.56058 145.429 11.1907 142.41 14.3629C139.434 17.491 137.925 21.28 137.925 25.5977C137.925 29.8713 139.434 33.6162 142.41 36.7444C145.429 39.9165 149.159 41.5467 153.555 41.5467C157.863 41.5467 161.593 39.9165 164.612 36.7444C167.588 33.6162 169.097 29.8713 169.097 25.5977C169.097 21.28 167.588 17.5351 164.612 14.3629C161.637 11.1467 157.907 9.56058 153.555 9.56058Z" fill="#0074FC"/>
<path d="M34.3701 63.2672V61.1525H45.4272V63.2672H34.3701ZM38.7219 75.6475V62.8707H41.1198V75.6475H38.7219Z" fill="#000C19"/>
<path d="M49.3793 75.6475V61.1965H51.7772V75.6475H49.3793ZM51.3331 63.2672V61.1965H57.994V63.2672H51.3331ZM51.3331 69.3472V67.2765H57.6388V69.3472H51.3331ZM51.3331 75.6475V73.5768H58.1716V75.6475H51.3331Z" fill="#000C19"/>
<path d="M61.3245 75.6475L66.4311 61.1965H70.4277L75.712 75.6475H73.2252L68.607 62.7826L69.584 63.2232H67.186L68.2074 62.7826L63.7224 75.6475H61.3245ZM64.6549 71.5942L65.4098 69.5235H71.5378L72.3371 71.5942H64.6549Z" fill="#000C19"/>
<path d="M79.6197 75.6475V61.1965H82.8613L86.8578 70.3165H87.2131L91.1652 61.1965H94.4512V75.6475H92.0533V63.3113L92.2754 63.3553L88.2344 72.6956H85.6145L81.5291 63.3553L81.7956 63.3113V75.6475H79.6197Z" fill="#000C19"/>
<path d="M99.8243 75.6475V61.1965H102.222V75.6475H99.8243ZM101.823 75.6475V73.5327H108.306V75.6475H101.823Z" fill="#000C19"/>
<path d="M112.347 75.6475V61.1965H114.745V75.6475H112.347Z" fill="#000C19"/>
<path d="M125.047 76C123.804 76 122.738 75.7797 121.85 75.3832C120.962 74.9867 120.295 74.4139 119.851 73.709C119.407 73.0041 119.185 72.211 119.185 71.2858H121.539C121.539 71.6823 121.672 72.0788 121.894 72.4754C122.116 72.8719 122.471 73.1803 123.004 73.4446C123.493 73.709 124.203 73.8411 125.047 73.8411C125.846 73.8411 126.468 73.709 127.001 73.4887C127.534 73.2684 127.889 72.96 128.155 72.6075C128.422 72.2551 128.511 71.8145 128.511 71.3739C128.511 70.8012 128.289 70.3606 127.8 70.0081C127.312 69.6556 126.601 69.4354 125.624 69.3472L124.159 69.2151C122.827 69.1269 121.761 68.6864 120.962 67.9814C120.162 67.2765 119.763 66.3072 119.763 65.1177C119.763 64.2365 119.985 63.4435 120.429 62.7826C120.873 62.1217 121.45 61.593 122.249 61.2406C123.049 60.844 123.937 60.6678 125.002 60.6678C126.068 60.6678 127.001 60.844 127.8 61.2406C128.599 61.6371 129.177 62.1658 129.621 62.8267C130.065 63.4875 130.287 64.3246 130.287 65.2498H127.933C127.933 64.8093 127.844 64.4127 127.622 64.0603C127.4 63.6638 127.09 63.3554 126.69 63.1351C126.29 62.9148 125.713 62.7826 125.047 62.7826C124.425 62.7826 123.892 62.9148 123.448 63.1351C123.049 63.3554 122.693 63.6638 122.516 64.0162C122.294 64.3687 122.205 64.7652 122.205 65.1617C122.205 65.6464 122.383 66.0869 122.782 66.4394C123.137 66.8359 123.715 67.0562 124.514 67.1003L125.935 67.2325C126.956 67.3206 127.844 67.5409 128.599 67.8933C129.354 68.2458 129.932 68.7304 130.376 69.3032C130.82 69.8759 130.997 70.5809 130.997 71.418C130.997 72.2991 130.775 73.0922 130.287 73.7971C129.798 74.502 129.132 75.0307 128.244 75.3832C127.356 75.7356 126.201 76 125.047 76Z" fill="#000C19"/>
<path d="M133.484 63.2672V61.1525H144.541V63.2672H133.484ZM137.791 75.6475V62.8707H140.189V75.6475H137.791Z" fill="#000C19"/>
</svg>
