<svg width="130" height="56" viewBox="0 0 130 56" fill="none" xmlns="http://www.w3.org/2000/svg">
<path d="M18.447 37.085C13.2548 37.085 8.99777 35.2931 5.38576 31.6134C1.7415 27.9017 0 23.6461 0 18.5585C0 13.4389 1.77375 9.15126 5.38576 5.47156C8.99777 1.79186 13.287 0 18.4793 0C23.6715 0 27.9286 1.79186 31.5406 5.43956C35.1526 9.11926 36.8941 13.4069 36.8941 18.5265C36.8941 23.6141 35.1526 27.9017 31.5083 31.5814C27.8963 35.2931 23.6393 37.085 18.447 37.085ZM18.447 6.94344C15.2543 6.94344 12.5453 8.12734 10.3523 10.4312C8.19152 12.703 7.09501 15.4548 7.09501 18.5905C7.09501 21.6942 8.19152 24.414 10.3523 26.6858C12.5453 28.9897 15.2543 30.1736 18.447 30.1736C21.5753 30.1736 24.2843 28.9897 26.4773 26.6858C28.6381 24.414 29.7346 21.6942 29.7346 18.5905C29.7346 15.4548 28.6381 12.735 26.4773 10.4312C24.3165 8.09535 21.6075 6.94344 18.447 6.94344Z" fill="#0074FC"/>
<path d="M69.7569 35.8371C67.1769 35.8371 64.8226 35.0052 62.5328 33.2453C60.2431 31.5174 58.6628 29.4056 57.8243 26.9418L53.9866 16.3507H64.1131C65.2741 16.3507 66.2416 15.8387 66.9834 14.8788C67.6606 14.0149 67.9831 13.0549 67.9831 12.031C67.9831 10.9751 67.6284 10.0152 66.9834 9.15126C66.2416 8.22334 65.2418 7.74337 64.1131 7.74337H48.3428V35.8051H41.2478V0.831935H64.1453C67.2414 0.831935 69.7891 1.91984 71.9176 4.15966C74.0784 6.43148 75.1104 9.02327 75.1104 12.127C75.1104 14.9428 74.2074 17.3746 72.4014 19.5504C70.5954 21.6942 68.3701 22.9101 65.5966 23.2621L63.9841 23.4541L64.6291 24.894C66.0804 28.1897 68.2089 28.8617 69.7246 28.8617H81.4636V0.799935H88.5586V35.8371H69.7569Z" fill="#0074FC"/>
<path d="M111.521 37.085C106.329 37.085 102.072 35.2931 98.4595 31.6134C94.8152 27.9017 93.0737 23.6461 93.0737 18.5585C93.0737 13.4389 94.8475 9.15126 98.4595 5.47156C102.072 1.79186 106.361 0 111.553 0C116.745 0 121.002 1.79186 124.614 5.43956C128.226 9.11926 130 13.4069 130 18.5265C130 23.6141 128.259 27.9017 124.614 31.5814C120.97 35.2931 116.713 37.085 111.521 37.085ZM111.521 6.94344C108.328 6.94344 105.619 8.12734 103.426 10.4312C101.265 12.703 100.169 15.4548 100.169 18.5905C100.169 21.6942 101.265 24.414 103.426 26.6858C105.619 28.9897 108.328 30.1736 111.521 30.1736C114.649 30.1736 117.358 28.9897 119.551 26.6858C121.712 24.414 122.808 21.6942 122.808 18.5905C122.808 15.4548 121.712 12.735 119.551 10.4312C117.39 8.09535 114.681 6.94344 111.521 6.94344Z" fill="#0074FC"/>
<path d="M24.9614 45.9483V44.4124H32.9917V45.9483H24.9614ZM28.1219 54.9395V45.6603H29.8634V54.9395H28.1219Z" fill="white"/>
<path d="M35.8621 54.9395V44.4444H37.6036V54.9395H35.8621ZM37.2811 45.9483V44.4444H42.1186V45.9483H37.2811ZM37.2811 50.3639V48.86H41.8606V50.3639H37.2811ZM37.2811 54.9395V53.4357H42.2476V54.9395H37.2811Z" fill="white"/>
<path d="M44.5371 54.9395L48.2459 44.4444H51.1484L54.9861 54.9395H53.1801L49.8261 45.5963L50.5356 45.9163H48.7941L49.5359 45.5963L46.2786 54.9395H44.5371ZM46.9559 51.9958L47.5041 50.4919H51.9546L52.5351 51.9958H46.9559Z" fill="white"/>
<path d="M57.8242 54.9395V44.4444H60.1785L63.081 51.0679H63.339L66.2092 44.4444H68.5957V54.9395H66.8542V45.9803L67.0155 46.0123L64.0807 52.7957H62.178L59.211 46.0123L59.4045 45.9803V54.9395H57.8242Z" fill="white"/>
<path d="M72.498 54.9395V44.4444H74.2395V54.9395H72.498ZM73.9493 54.9395V53.4037H78.6578V54.9395H73.9493Z" fill="white"/>
<path d="M81.5925 54.9395V44.4444H83.334V54.9395H81.5925Z" fill="white"/>
<path d="M90.8161 55.1955C89.9131 55.1955 89.1391 55.0355 88.4941 54.7476C87.8491 54.4596 87.3653 54.0436 87.0428 53.5317C86.7203 53.0197 86.5591 52.4438 86.5591 51.7718H88.2683C88.2683 52.0598 88.3651 52.3478 88.5263 52.6357C88.6876 52.9237 88.9456 53.1477 89.3326 53.3397C89.6873 53.5317 90.2033 53.6277 90.8161 53.6277C91.3966 53.6277 91.8481 53.5317 92.2351 53.3717C92.6221 53.2117 92.8801 52.9877 93.0736 52.7317C93.2671 52.4757 93.3316 52.1558 93.3316 51.8358C93.3316 51.4198 93.1703 51.0999 92.8156 50.8439C92.4608 50.5879 91.9448 50.4279 91.2353 50.3639L90.1711 50.2679C89.2036 50.2039 88.4296 49.884 87.8491 49.372C87.2686 48.86 86.9783 48.1561 86.9783 47.2922C86.9783 46.6522 87.1396 46.0763 87.4621 45.5963C87.7846 45.1163 88.2038 44.7324 88.7843 44.4764C89.3648 44.1884 90.0098 44.0604 90.7838 44.0604C91.5578 44.0604 92.2351 44.1884 92.8156 44.4764C93.3961 44.7644 93.8153 45.1483 94.1378 45.6283C94.4603 46.1083 94.6216 46.7162 94.6216 47.3882H92.9123C92.9123 47.0682 92.8478 46.7802 92.6866 46.5242C92.5253 46.2363 92.2996 46.0123 92.0093 45.8523C91.7191 45.6923 91.2998 45.5963 90.8161 45.5963C90.3646 45.5963 89.9776 45.6923 89.6551 45.8523C89.3648 46.0123 89.1068 46.2363 88.9778 46.4922C88.8166 46.7482 88.7521 47.0362 88.7521 47.3242C88.7521 47.6761 88.8811 47.9961 89.1713 48.2521C89.4293 48.5401 89.8486 48.7001 90.4291 48.7321L91.4611 48.828C92.2028 48.892 92.8478 49.052 93.3961 49.308C93.9443 49.564 94.3636 49.916 94.6861 50.3319C95.0086 50.7479 95.1376 51.2598 95.1376 51.8678C95.1376 52.5077 94.9763 53.0837 94.6216 53.5957C94.2668 54.1076 93.7831 54.4916 93.1381 54.7476C92.4931 55.0035 91.6546 55.1955 90.8161 55.1955Z" fill="white"/>
<path d="M96.9434 45.9483V44.4124H104.974V45.9483H96.9434ZM100.072 54.9395V45.6603H101.813V54.9395H100.072Z" fill="white"/>
</svg>
